<svg width="1200" height="900" viewBox="0 0 1200 900" fill="none" xmlns="http://www.w3.org/2000/svg">
  <rect width="1200" height="900" rx="40" fill="url(#bg)"/>
  <rect x="70" y="70" width="1060" height="760" rx="32" fill="#FDFEFF" fill-opacity="0.92"/>
  <rect x="108" y="112" width="984" height="70" rx="22" fill="#EEF3FB"/>
  <rect x="140" y="136" width="160" height="22" rx="11" fill="#CBD5E7"/>
  <rect x="835" y="136" width="104" height="22" rx="11" fill="#D8E2F2"/>
  <rect x="955" y="136" width="104" height="22" rx="11" fill="#111827"/>
  <rect x="108" y="222" width="620" height="488" rx="28" fill="url(#hero)"/>
  <circle cx="609" cy="322" r="120" fill="white" fill-opacity="0.28"/>
  <path d="M410 516C410 430.948 478.948 362 564 362V362C649.052 362 718 430.948 718 516V710H410V516Z" fill="#132033"/>
  <rect x="760" y="222" width="332" height="230" rx="28" fill="#F2F6FC"/>
  <rect x="790" y="256" width="180" height="26" rx="13" fill="#B4C3DA"/>
  <rect x="790" y="302" width="255" height="16" rx="8" fill="#D0DBEA"/>
  <rect x="790" y="330" width="235" height="16" rx="8" fill="#D0DBEA"/>
  <rect x="790" y="384" width="134" height="38" rx="19" fill="#111827"/>
  <rect x="760" y="480" width="332" height="230" rx="28" fill="#111827"/>
  <rect x="792" y="514" width="155" height="20" rx="10" fill="white" fill-opacity="0.36"/>
  <rect x="792" y="564" width="268" height="112" rx="24" fill="url(#chart)"/>
  <path d="M820 633L874 584L919 610L973 548L1028 584" stroke="white" stroke-width="12" stroke-linecap="round" stroke-linejoin="round"/>
  <defs>
    <linearGradient id="bg" x1="85" y1="54" x2="1134" y2="816" gradientUnits="userSpaceOnUse">
      <stop stop-color="#EAF1FF"/>
      <stop offset="1" stop-color="#F8FAFD"/>
    </linearGradient>
    <linearGradient id="hero" x1="144" y1="222" x2="650" y2="710" gradientUnits="userSpaceOnUse">
      <stop stop-color="#CBDCFF"/>
      <stop offset="1" stop-color="#EEF4FF"/>
    </linearGradient>
    <linearGradient id="chart" x1="792" y1="564" x2="1060" y2="676" gradientUnits="userSpaceOnUse">
      <stop stop-color="#5B7DFF"/>
      <stop offset="1" stop-color="#8DB2FF"/>
    </linearGradient>
  </defs>
</svg>
